<svg width="22" height="20" viewBox="0 0 22 20" fill="none" xmlns="http://www.w3.org/2000/svg">
<path d="M17.3025 14.5505C15.8002 14.5505 14.5778 15.7729 14.5778 17.2752C14.5778 18.7776 15.8002 20 17.3025 20C18.8049 20 20.0273 18.7776 20.0273 17.2752C20.0273 15.7729 18.8049 14.5505 17.3025 14.5505ZM17.3025 18.3649C16.7016 18.3649 16.2125 17.8762 16.2125 17.2748C16.2125 16.6734 16.7012 16.1847 17.3025 16.1847C17.9039 16.1847 18.3926 16.6734 18.3926 17.2748C18.3926 17.8762 17.9039 18.3649 17.3025 18.3649ZM21.6791 4.01929C21.5241 3.82125 21.2868 3.70558 21.0354 3.70558H5.04578L4.30995 0.627414C4.22203 0.259502 3.89338 0 3.5148 0H0.817346C0.365778 0 0 0.365778 0 0.817346C0 1.26891 0.365778 1.63469 0.817346 1.63469H2.86946L5.52594 12.7506C5.61386 13.1185 5.94294 13.378 6.32109 13.378H19.0456C19.4212 13.378 19.749 13.1219 19.8391 12.7574L21.828 4.71926C21.8882 4.47513 21.8327 4.21733 21.6782 4.01887L21.6791 4.01929ZM18.4067 11.7437H6.96686L5.43674 5.3407H19.991L18.4067 11.7437ZM7.4116 14.5505C5.90922 14.5505 4.68683 15.7729 4.68683 17.2752C4.68683 18.7776 5.90922 20 7.4116 20C8.91398 20 10.1364 18.7776 10.1364 17.2752C10.1364 15.7729 8.91398 14.5505 7.4116 14.5505ZM7.4116 18.3649C6.81064 18.3649 6.32152 17.8762 6.32152 17.2748C6.32152 16.6734 6.81022 16.1847 7.4116 16.1847C8.01297 16.1847 8.50168 16.6734 8.50168 17.2748C8.50168 17.8762 8.01297 18.3649 7.4116 18.3649Z" fill="white"/>
</svg>
