<svg width="24" height="24" viewBox="0 0 24 24" fill="none" xmlns="http://www.w3.org/2000/svg">
<path d="M12 24C18.6274 24 24 18.6274 24 12C24 5.37258 18.6274 0 12 0C5.37258 0 0 5.37258 0 12C0 18.6274 5.37258 24 12 24Z" fill="url(#paint0_linear_1706_4795)"/>
<path d="M7.19303 9.19017H9.25766V15.8171H7.19303V9.19017ZM8.22534 5.89685C8.88502 5.89685 9.4188 6.43063 9.4188 7.0903C9.4188 7.74997 8.88502 8.28375 8.22534 8.28375C7.56567 8.28375 7.02686 7.74997 7.02686 7.0903C7.02686 6.43063 7.56064 5.89685 8.22534 5.89685Z" fill="white"/>
<path d="M10.5531 9.1901H12.5271V10.0965H12.5523C12.8293 9.57282 13.499 9.02393 14.5011 9.02393C16.5859 9.02393 16.9736 10.3936 16.9736 12.1813V15.817H14.914V12.5942C14.914 11.8238 14.8989 10.8368 13.8414 10.8368C12.7839 10.8368 12.6077 11.6727 12.6077 12.5388V15.817H10.5481V9.1901H10.5531Z" fill="white"/>
<defs>
<linearGradient id="paint0_linear_1706_4795" x1="3.5149" y1="3.5149" x2="20.4851" y2="20.4851" gradientUnits="userSpaceOnUse">
<stop stop-color="#007BB8"/>
<stop offset="1" stop-color="#0044E9"/>
</linearGradient>
</defs>
</svg>
