<svg width="11" height="14" viewBox="0 0 11 14" fill="none" xmlns="http://www.w3.org/2000/svg">
<path d="M5.25 0C2.35539 0 0 2.3718 0 5.28801C0 9.43141 4.75645 13.7096 4.95879 13.8893C5.04219 13.9634 5.14609 14 5.25 14C5.35391 14 5.45754 13.9634 5.54121 13.8898C5.74355 13.7096 10.5 9.43141 10.5 5.28801C10.5 2.3718 8.14461 0 5.25 0ZM5.25 8.16676C3.64164 8.16676 2.33324 6.85836 2.33324 5.25C2.33324 3.64164 3.64164 2.33324 5.25 2.33324C6.85836 2.33324 8.16676 3.64164 8.16676 5.25C8.16676 6.85836 6.85836 8.16676 5.25 8.16676Z" fill="#D4BC66"/>
</svg>
