<svg width="160" height="50" viewBox="0 0 160 50" fill="none" xmlns="http://www.w3.org/2000/svg">
<path d="M0 26.0586C0 25.3423 0 24.6255 0 23.9092C0.0408163 23.4471 0.075188 22.985 0.122449 22.5234C0.5 18.8345 1.57089 15.3584 3.53061 12.2095C8.22019 4.67478 15.0177 0.542023 23.8802 0.0417502C29.9501 -0.301079 35.4624 1.4711 40.2573 5.22288C46.0269 9.73715 49.2293 15.6964 49.898 23.0054C49.9388 23.4492 49.9662 23.8947 50 24.3391V25.6825C49.9855 25.7878 49.9688 25.8931 49.957 25.9984C49.8217 27.2075 49.761 28.4299 49.5403 29.6223C48.6735 34.3091 46.6187 38.4263 43.3765 41.9147C39.0295 46.5924 33.6611 49.2598 27.2975 49.881C24.6037 50.1443 21.9296 49.9739 19.2986 49.3388C13.2159 47.8697 8.32599 44.5902 4.66165 39.5187C2.11815 35.9991 0.63319 32.0565 0.158969 27.7368C0.0972073 27.1785 0.0526316 26.618 0 26.0586ZM24.9785 47.7783C37.2632 47.8664 47.7787 37.8492 47.7777 24.9974C47.7771 12.2057 37.3974 2.41469 25.4114 2.19867C12.8985 1.97299 2.22019 12.0784 2.20677 24.9678C2.19334 37.7395 12.63 47.8482 24.9785 47.7783ZM23.2664 30.2499C22.9866 32.5197 21.6267 34.0657 19.4296 34.5821C18.0177 34.9136 16.6896 34.7642 15.5306 33.8029C14.9092 33.287 14.4984 32.6213 14.181 31.8899C13.5773 30.4977 12.8496 29.1769 11.9791 27.9313C11.0661 26.6255 10.1864 25.2967 9.28303 23.9839C9.09076 23.705 8.87111 23.4428 8.64447 23.1902C8.32707 22.8367 8.1015 22.8211 7.71482 23.1075C7.60795 23.1865 7.5188 23.2897 7.42428 23.3842C7.27981 23.5299 7.29592 23.6631 7.41353 23.8335C8.64339 25.6164 9.86681 27.4041 11.0886 29.1924C11.5752 29.905 11.9726 30.6632 12.2621 31.4789C12.4506 32.0098 12.6439 32.5423 12.8797 33.0533C13.7035 34.8373 15.1246 35.833 17.0553 36.0587C19.4006 36.3327 22.1805 35.2666 23.6617 32.2892C24.1933 31.2209 23.8931 30.1849 23.3963 29.1715C23.3528 29.531 23.3099 29.891 23.2653 30.2505L23.2664 30.2499ZM42.3641 23.1064C41.9839 22.8098 41.8636 22.8034 41.5618 23.1741C40.8786 24.0135 40.2121 24.8673 39.5473 25.7217C37.9484 27.7765 36.486 29.9125 35.5263 32.3596C35.3577 32.7895 35.0693 33.2021 34.747 33.5364C33.6461 34.6777 32.2777 34.9432 30.7707 34.6036C28.8652 34.1742 27.4887 33.1226 26.9366 31.1833C26.7884 30.6632 26.7572 30.1102 26.6762 29.5713C26.6563 29.4391 26.6514 29.3042 26.6391 29.1704C26.616 29.1693 26.5929 29.1677 26.5698 29.1666C26.4737 29.4713 26.3679 29.7733 26.2841 30.0812C26.0328 31.0044 26.1504 31.8792 26.5886 32.7341C27.7766 35.0522 30.3126 36.3709 32.9667 36.0302C34.4941 35.8341 35.7116 35.1054 36.5548 33.8282C36.9296 33.2602 37.2272 32.6202 37.4452 31.9743C37.8738 30.7024 38.4979 29.5519 39.2889 28.4751C40.4866 26.8448 41.6595 25.1962 42.8657 23.5234C42.6923 23.3789 42.5322 23.2375 42.3647 23.1064H42.3641ZM30.7852 11.0015C30.6536 10.7527 30.471 10.5835 30.218 10.4588C29.2701 9.9924 28.4259 9.38089 27.7127 8.59582C26.9001 7.70167 26.0875 6.80806 25.2777 5.91122C25.2137 5.84083 25.1756 5.74733 25.1235 5.66136C24.5059 6.40182 23.9646 7.08103 23.391 7.73176C22.5542 8.68072 21.6815 9.60658 20.5381 10.1864C19.8996 10.5099 19.4388 10.9543 19.1182 11.5787C18.9694 11.8683 18.7873 12.1402 18.6074 12.4411C18.6788 12.4465 18.7068 12.4561 18.7304 12.4497C19.8448 12.1386 20.9646 11.8124 21.9044 11.1155C22.8292 10.4298 23.6955 9.66461 24.5838 8.92952C24.782 8.76562 24.9629 8.58078 25.1724 8.38679C26.9125 10.353 28.9291 11.8506 31.5967 12.4658C31.3024 11.9371 31.0349 11.4739 30.7852 11.0015ZM22.8464 15.216C22.6418 15.7587 22.2084 16.2144 22.3072 16.8662C22.3915 16.037 23.145 15.6534 23.4941 15.0021C23.5166 15.0155 23.5397 15.0284 23.5623 15.0419C23.4425 15.252 23.3357 15.4707 23.1992 15.6695C23.0553 15.8801 22.8829 16.0709 22.7637 16.3111C22.8201 16.2649 22.8781 16.2197 22.9329 16.1719C23.5285 15.6512 24.1402 15.1698 24.9409 14.9812C25.2363 14.9118 25.5054 14.7297 25.8131 14.5867C25.5854 14.892 25.29 15.0763 24.9425 15.1821C24.3711 15.3557 23.9049 15.691 23.4474 16.1273C23.507 16.1214 23.529 16.1257 23.5408 16.1166C24.0215 15.7673 24.5709 15.5932 25.1434 15.4653C25.7793 15.3234 26.4307 15.2111 26.9409 14.7458L26.9914 14.8103C26.8045 14.957 26.638 15.1542 26.4264 15.2407C25.9495 15.4363 25.457 15.6029 24.9586 15.7361C24.0107 15.9898 23.0242 16.5991 22.4979 17.3133C22.5435 17.3106 22.5768 17.3181 22.5983 17.3052C23.3883 16.8447 24.2669 16.6819 25.1515 16.5357C25.8378 16.4218 26.522 16.2977 27.1273 15.9124C26.8335 16.2584 26.4597 16.4718 26.0317 16.5835C25.6182 16.691 25.1987 16.777 24.7347 16.8828C24.8265 16.9468 24.8776 16.993 24.9366 17.022C25.6439 17.3681 26.0537 17.9495 26.2632 18.691C26.587 19.8356 26.4914 20.9791 26.246 22.1193C26.1348 22.6352 26.014 23.1489 25.8792 23.6588C25.7417 24.1795 25.369 24.8308 25.0166 25.2182C24.2336 24.5207 23.9108 23.0892 24.3255 22.0516C24.6198 21.3144 24.848 20.5658 24.8727 19.7673C24.8792 19.5621 24.862 19.3563 24.8582 19.1505C24.8496 18.662 24.5709 18.381 24.1439 18.2128C23.3566 17.9022 22.4662 18.1752 21.986 18.8737C21.9517 18.9237 21.9125 18.9699 21.8743 19.0199C21.5832 18.6797 21.6321 18.1617 21.9979 17.8474C22.1396 17.7259 22.1976 17.6061 22.1498 17.4299C21.913 16.561 22.1498 16.1176 22.8459 15.2165L22.8464 15.216ZM23.3899 17.4621C23.3776 17.4239 23.3657 17.3863 23.3534 17.3482C23.1579 17.2488 23.0263 17.3063 22.9855 17.5964C23.1203 17.5518 23.2551 17.5067 23.3899 17.4621ZM29.4715 40.2919C27.7073 38.6772 26.5059 36.7256 26.0435 34.3515C25.9742 33.9969 25.877 33.6481 25.7922 33.2962C25.6128 33.7357 25.486 34.1715 25.362 34.6084C25.007 35.8593 25.0752 37.0883 25.7014 38.2296C26.0994 38.9545 26.5795 39.6434 27.0913 40.2946C28.1106 41.5923 29.3861 42.5418 31.0134 42.9631C32.2562 43.285 33.4356 43.1641 34.5977 42.48C32.58 42.3742 30.9028 41.6025 29.471 40.2919H29.4715ZM35.5891 40.3935C34.5972 39.7395 33.6139 39.0684 32.6649 38.3537C31.4146 37.4123 30.2143 36.401 28.8136 35.6793C28.0489 35.2855 27.3663 34.7927 26.805 34.1377C26.7465 34.0694 26.6944 33.9963 26.6391 33.926C26.9017 35.1952 27.4737 36.2527 28.449 37.0727C28.935 37.4816 29.3947 37.9212 29.8797 38.3312C31.2385 39.48 32.6036 40.6219 33.9678 41.7643C34.2422 41.9943 34.5634 42.0872 34.9184 42.0458C35.7889 41.9443 36.4646 41.4553 37.1332 40.9271C36.5285 40.9851 36.0435 40.6928 35.5891 40.393V40.3935ZM24.1316 33.2897C24.0532 33.6111 23.9667 33.9308 23.8996 34.2548C23.3958 36.6965 22.2229 38.7433 20.3271 40.3725C19.1289 41.4021 17.8013 42.1544 16.2105 42.3672C15.9447 42.4027 15.6767 42.422 15.3416 42.4558C16.0687 42.9078 16.782 43.1361 17.5628 43.1136C18.9221 43.0743 20.1353 42.6203 21.2019 41.7815C22.413 40.8293 23.3802 39.6643 24.1412 38.3285C24.5107 37.6799 24.7675 36.9819 24.6799 36.2285C24.5634 35.2285 24.3835 34.2355 24.2207 33.1753C24.1509 33.2639 24.1343 33.2758 24.1305 33.2908L24.1316 33.2897ZM14.993 42.0706C15.2723 42.0926 15.5838 41.9626 15.8491 41.8363C16.0945 41.7197 16.3104 41.5284 16.5188 41.3468C18.2046 39.8766 19.8942 38.4096 21.5655 36.9222C22.4211 36.1608 22.9823 35.2086 23.2503 33.9969C22.5027 34.9609 21.485 35.4262 20.5494 36.0098C19.8749 36.4305 19.2148 36.8787 18.5757 37.3521C17.7062 37.9964 16.8802 38.7003 16.0038 39.3344C15.0575 40.0195 14.0822 40.6686 12.8609 40.8841C13.4758 41.4746 14.1198 42.0013 14.993 42.07V42.0706ZM22.6826 26.661C22.9742 27.3176 23.3722 27.934 23.7728 28.5342C24.2148 29.1973 24.7095 29.8244 24.9667 30.5928C24.9748 30.617 24.9731 30.6444 24.9764 30.6702C25.2889 29.7868 25.841 29.1226 26.3432 28.4273C26.8169 27.7717 27.2411 27.085 27.4769 26.3047C27.9001 24.9055 27.4672 23.6814 26.6692 22.5406C26.6638 22.5331 26.6375 22.5395 26.6031 22.5395C26.5929 22.6115 26.5806 22.6884 26.5709 22.7657C26.4538 23.662 26.3695 24.5643 26.2121 25.4536C26.0532 26.3504 25.6498 27.1446 24.9866 27.8346C23.601 26.2408 23.2363 24.4433 23.7895 22.3917C22.6402 23.2386 22.0881 25.3225 22.6831 26.661H22.6826ZM21.0489 8.29813C20.6788 8.05256 20.261 7.97142 19.8416 7.89082C19.3657 7.80001 18.9995 7.95423 18.6681 8.30727C17.3878 9.67321 16.6251 11.3164 16.0634 13.0725C15.8389 13.7743 15.6686 14.4863 15.6751 15.2299C15.6805 15.8893 15.9581 16.417 16.4613 16.8522C17.2111 13.5695 18.5553 10.6367 21.0489 8.29759V8.29813ZM34.3604 14.7705C34.1359 12.5453 33.3212 10.5432 32.0338 8.72909C31.8502 8.47008 31.6053 8.24547 31.3571 8.04343C30.8593 7.63719 29.6885 7.79625 29.247 8.33843C31.7712 10.5636 32.8534 13.547 33.6112 16.7297C34.0977 16.1703 34.4388 15.5475 34.3604 14.7705ZM22.4581 23.1107C22.8496 22.41 22.7256 21.791 22.2374 21.2026C21.848 20.7329 21.3663 20.3778 20.8303 20.1005C19.877 19.6077 18.9146 19.1333 17.9554 18.6513C16.2615 17.8001 14.8373 16.6308 13.754 15.065C13.4651 14.6475 13.1966 14.2165 12.9066 13.7732C13.0859 14.5749 13.3931 15.3052 13.804 15.9908C15.0086 18.0037 16.6992 19.4777 18.8255 20.4455C20.1396 21.0435 21.0677 21.9844 21.5811 23.3353C21.6944 23.6336 21.8163 23.9286 21.9479 24.2585C22.1305 23.8415 22.2637 23.4589 22.4586 23.1107H22.4581ZM28.1804 24.2418C28.3437 23.8657 28.5005 23.4858 28.6724 23.1134C29.2282 21.9049 30.1047 21.0167 31.2981 20.4191C31.8802 20.1279 32.4436 19.7883 32.9801 19.4197C34.6579 18.2665 35.9291 16.77 36.6923 14.8672C36.8067 14.5814 36.8792 14.2788 36.971 13.9838C36.6821 14.3734 36.4527 14.7872 36.1831 15.1735C35.1079 16.7141 33.6633 17.821 32.0204 18.6942C31.0011 19.2359 29.9876 19.7883 28.9764 20.345C28.4345 20.6437 27.9608 21.0339 27.6826 21.5954C27.5612 21.841 27.4447 22.1644 27.5038 22.4095C27.6547 23.0371 27.9055 23.6405 28.1165 24.2537C28.138 24.2499 28.1595 24.2461 28.181 24.2424L28.1804 24.2418ZM35.2669 35.9915C36.058 36.0764 36.8475 36.1855 37.6412 36.2382C38.7766 36.3134 39.9141 36.315 41.0242 36.0055C42.4501 35.6084 43.2675 34.6422 43.5843 33.2215C43.6101 33.107 43.6063 32.9861 43.6214 32.8067C43.3899 32.9695 43.2148 33.0893 43.0424 33.2134C42.2299 33.7997 41.3319 34.1855 40.3367 34.3112C39.2814 34.4445 38.2218 34.538 37.1665 34.6691C36.9162 34.7003 36.6391 34.7589 36.4398 34.8986C35.9957 35.2102 35.5934 35.581 35.1412 35.9545C35.203 35.9733 35.2347 35.9878 35.2669 35.9915ZM32.9168 21.7093C33.2981 21.7819 33.6767 21.8877 34.0618 21.92C35.2712 22.0199 36.449 21.7819 37.6219 21.5271C39.2916 21.165 40.7503 20.4181 41.9146 19.1419C42.5832 18.4089 43.1085 17.598 43.2664 16.5948C43.3394 16.1316 43.3416 15.6684 43.2197 15.1386C43.1729 15.2477 43.1536 15.2869 43.1391 15.3272C42.6004 16.8226 41.6681 18.014 40.3792 18.9382C39.1574 19.8141 37.7728 20.3041 36.3394 20.6878C35.1998 20.993 34.0623 21.3052 32.9237 21.6142C32.9216 21.6459 32.9194 21.6776 32.9173 21.7093H32.9168ZM23.6874 44.4414C24.2965 44.6708 24.9227 44.724 25.5602 44.6192C26.9259 44.3951 27.913 43.5553 28.8222 42.5923C28.8308 42.5832 28.8233 42.559 28.8233 42.5268C28.3958 42.2097 27.9608 41.8879 27.5172 41.5596C26.7707 42.3006 26.0365 42.9889 24.9146 42.9932C23.7707 42.9975 23.0553 42.2801 22.3486 41.5069C21.9409 41.8266 21.5494 42.1334 21.1396 42.4542C21.8759 43.293 22.6396 44.0464 23.6874 44.4408V44.4414ZM14.9554 35.9023C14.4501 35.5525 13.9463 35.2006 13.4361 34.8588C13.3534 34.8034 13.2417 34.776 13.1407 34.7664C12.1439 34.6718 11.1418 34.6213 10.1509 34.4853C8.74651 34.2924 7.38292 33.9652 6.37809 32.8373C6.37433 32.8335 6.3609 32.8384 6.32707 32.8416C6.33459 32.9168 6.32599 32.9985 6.35177 33.0667C6.54619 33.5729 6.67991 34.1183 6.95972 34.5735C7.66434 35.7175 8.80183 36.178 10.0795 36.3053C11.7309 36.4703 13.3588 36.1667 15.0521 36.0103C14.9882 35.9389 14.9748 35.9163 14.9554 35.9029V35.9023ZM17.4033 21.6867C17.3233 21.6609 17.2444 21.6303 17.1633 21.6094C16.4023 21.4105 15.6402 21.2133 14.8792 21.0145C13.4141 20.6325 11.971 20.1902 10.6391 19.4476C9.16864 18.6276 7.94468 17.562 7.22932 15.9951C7.13373 15.7856 7.05102 15.5706 6.93824 15.3003C6.76208 16.1445 6.79646 16.9065 7.19442 17.6174C7.97637 19.014 9.0666 20.1005 10.5156 20.7958C12.1907 21.5997 13.9834 21.9038 15.8233 21.9366C16.3486 21.9457 16.8759 21.8308 17.4028 21.7727C17.4028 21.7437 17.4039 21.7152 17.4039 21.6862L17.4033 21.6867ZM6.44415 26.0715C6.60419 25.877 6.62299 25.7158 6.47905 25.4987C6.0043 24.7813 6.01396 24.0742 6.57734 23.4009C6.66327 23.2983 6.75403 23.1988 6.85285 23.1086C7.35822 22.6443 7.86627 22.1833 8.38346 21.7125C8.1015 21.1526 7.81901 20.59 7.529 20.014C6.43609 20.7415 5.49141 21.5465 4.9275 22.7174C4.21805 24.1908 4.50806 25.8507 5.70569 27.0468C5.95918 26.7094 6.19012 26.381 6.44415 26.0721V26.0715ZM45.1418 25.891C45.4823 25.1892 45.6026 24.4385 45.4404 23.6696C45.0918 22.0156 43.9748 20.9629 42.5956 20.0742C42.2975 20.6529 42.0129 21.2053 41.7261 21.7609C41.9737 21.9463 42.2084 22.1096 42.428 22.2907C42.6552 22.4783 42.8797 22.6722 43.0838 22.884C43.9549 23.7872 44.145 24.4836 43.4903 25.5981C43.4425 25.6798 43.456 25.8496 43.5113 25.9313C43.7787 26.3316 44.0704 26.7158 44.4049 27.1774C44.6676 26.7239 44.9334 26.3208 45.1418 25.891ZM43.8749 32.8636C44.8142 31.8813 45.1026 30.7196 44.8077 29.4025C44.4334 27.7292 43.4495 26.4294 42.2524 25.2633C42.2422 25.2537 42.2197 25.2569 42.1805 25.251C41.9952 25.5342 41.8142 25.8313 41.6128 26.1134C41.4898 26.2854 41.5027 26.4138 41.616 26.5944C41.9962 27.1994 42.3851 27.8029 42.7095 28.438C43.2648 29.5256 43.7089 30.6583 43.7932 31.8969C43.8147 32.214 43.7965 32.5337 43.7965 32.8518C43.8228 32.8556 43.8485 32.8599 43.8749 32.8636ZM5.66165 27.9522C5.2261 28.7905 4.93233 29.6632 4.99248 30.6256C5.04672 31.4966 5.43233 32.2209 5.99194 32.9329C6.00322 32.8067 6.01235 32.7384 6.01504 32.6696C6.07895 31.071 6.54726 29.5895 7.33351 28.2075C7.65145 27.6486 8.02793 27.1226 8.36305 26.5729C8.42266 26.4751 8.46617 26.3069 8.42266 26.2166C8.26745 25.8963 8.07143 25.596 7.87057 25.2531C7.02095 26.0978 6.20301 26.9103 5.66165 27.9517V27.9522ZM34.4431 20.7319C34.5977 20.6953 34.7546 20.6663 34.9066 20.6217C37.5312 19.8447 39.464 18.3122 40.3067 15.6174C40.7895 14.0736 40.6047 12.6114 39.6783 11.2643C39.6257 11.188 39.5671 11.116 39.5113 11.0418C39.4785 11.1063 39.4833 11.1493 39.4936 11.1907C39.7427 12.1993 39.7347 13.2149 39.5397 14.2273C39.1241 16.3863 37.9458 18.0709 36.2433 19.4084C35.6622 19.8651 35.0403 20.2703 34.4366 20.6991C34.4388 20.7104 34.4404 20.7211 34.4425 20.7324L34.4431 20.7319ZM10.4237 11.3041C9.53491 12.5797 9.3319 13.9887 9.7551 15.4535C10.5038 18.0457 12.2465 19.6905 14.7889 20.5164C15.0424 20.5986 15.3034 20.6566 15.5612 20.726C15.3566 20.5121 15.1305 20.3552 14.9006 20.2058C13.8974 19.5535 12.9592 18.8227 12.2363 17.857C10.9748 16.1714 10.2417 14.3084 10.4275 12.1617C10.4581 11.8097 10.5435 11.4631 10.6122 11.0601C10.529 11.1676 10.4726 11.2337 10.4237 11.3041ZM16.3867 7.78604C16.4259 7.77153 16.4597 7.76239 16.4903 7.74681C17.8034 7.09178 19.1842 7.00258 20.5988 7.28361C21.2202 7.40721 21.8292 7.59259 22.4468 7.73875C22.5365 7.75971 22.6805 7.75433 22.732 7.69899C23.0226 7.38517 23.2922 7.05255 23.5795 6.71402C21.305 4.84727 17.1482 5.47973 16.3872 7.78604H16.3867ZM30.9909 5.67318C29.3974 5.35614 27.9619 5.76077 26.6192 6.66835C26.9613 7.04611 27.268 7.39538 27.5913 7.72908C27.6418 7.78066 27.7846 7.79678 27.8566 7.76508C29.7691 6.92681 31.6917 6.83923 33.6321 7.66191C33.6525 7.67051 33.6805 7.66298 33.7658 7.66298C33.1294 6.5453 32.1939 5.9123 30.9903 5.67264L30.9909 5.67318ZM13.6284 12.1848C14.2202 11.2519 14.9817 10.4782 16.0424 10.1488C16.6992 9.94511 17.058 9.5695 17.3002 8.97895C17.4168 8.69577 17.5897 8.43569 17.7368 8.16487C17.7213 8.13693 17.7062 8.10898 17.6907 8.08104C17.0655 8.2186 16.4291 8.31801 15.8174 8.50179C14.4087 8.92522 13.3582 9.7882 12.7594 11.1568C12.4737 11.8097 12.5994 12.5362 13.0967 13.0193C13.283 12.727 13.4554 12.4561 13.6278 12.1853L13.6284 12.1848ZM37.3625 11.0983C37.1047 10.3616 36.6557 9.75865 36.0467 9.2745C35.0274 8.46417 33.8249 8.16648 32.5644 8.03322C32.5548 8.03214 32.5424 8.0574 32.5183 8.0848C32.7454 8.53134 32.9844 8.97949 33.2019 9.43839C33.3153 9.67805 33.4699 9.84409 33.7197 9.94403C34.0091 10.0601 34.2846 10.2122 34.5693 10.3422C35.4055 10.7227 36.0725 11.2976 36.5709 12.0693C36.7546 12.3535 36.9393 12.6367 37.1455 12.9543C37.4791 12.3395 37.5865 11.7366 37.3631 11.0983H37.3625ZM38.239 36.9308C38.1826 36.934 38.1139 36.9679 38.0768 37.0109C37.5967 37.5687 36.9205 37.7256 36.254 37.8255C35.3797 37.9572 34.4914 37.9948 33.609 38.0732C33.5188 38.0813 33.4291 38.0942 33.2573 38.1146C33.6321 38.4015 33.9382 38.6326 34.2406 38.8685C34.7476 39.2635 35.3163 39.4467 35.9629 39.4182C36.6729 39.3865 37.3797 39.3489 38.0258 39.0136C38.877 38.5719 39.3034 37.832 39.5005 36.8712C39.0403 36.8916 38.6391 36.9066 38.2385 36.9303L38.239 36.9308ZM12.3024 39.1914C12.9823 39.4574 13.6928 39.5203 14.4119 39.4445C14.6165 39.423 14.8324 39.3446 15.0081 39.2355C15.5016 38.9292 15.9758 38.5928 16.4597 38.2704C16.5011 38.243 16.5537 38.2323 16.601 38.214C16.5816 38.1898 16.5628 38.1656 16.5435 38.142C15.6729 38.0582 14.8018 37.9776 13.9313 37.8884C13.3604 37.8298 12.7626 37.7874 12.3163 37.3924C11.7782 36.9163 11.1692 36.9905 10.5193 37.0157C10.7605 38.056 11.3126 38.8046 12.3024 39.1914ZM13.4033 25.3316C14.2046 25.5535 15.0209 25.6126 15.8485 25.5428C17.102 25.4374 18.2825 25.0608 19.4318 24.575C20.0134 24.3294 20.601 24.1279 21.2438 24.1478C21.282 24.1489 21.3206 24.1258 21.3641 24.1123C21.2621 23.8845 21.1987 23.6481 20.8765 23.7023C20.3394 23.7932 19.7938 23.8431 19.2632 23.9603C17.2374 24.4084 15.1966 24.6916 13.1171 24.5497C12.6745 24.5196 12.2374 24.4181 11.7299 24.3391C12.2599 24.8066 12.7798 25.1586 13.4033 25.331V25.3316ZM30.8131 24.6062C31.1353 24.7126 31.4484 24.8464 31.7675 24.9619C33.2401 25.496 34.7427 25.7373 36.2981 25.4009C37.0709 25.2338 37.747 24.8732 38.3577 24.3133C38.2911 24.3133 38.2637 24.3079 38.2395 24.3138C36.6729 24.7061 35.0913 24.6094 33.5188 24.4041C32.1284 24.223 30.7487 23.9565 29.3636 23.7297C28.9286 23.6583 28.9114 23.6717 28.7277 24.151C29.4839 24.1236 30.1445 24.3853 30.8131 24.6062ZM17.5199 22.798C15.7481 22.5067 13.9791 22.1967 12.2035 21.9345C11.0048 21.7577 9.81096 21.5992 8.76799 20.913C8.75725 20.906 8.73631 20.914 8.67777 20.9178C8.76638 21.029 8.83727 21.1247 8.91514 21.2149C9.74705 22.1795 10.7991 22.7684 12.0424 23.0049C13.8985 23.3574 15.7444 23.1688 17.6343 22.8619C17.5644 22.8222 17.544 22.8023 17.5204 22.7985L17.5199 22.798ZM32.7336 22.8754C33.0081 22.9097 33.282 22.9441 33.5564 22.9785C34.8362 23.1397 36.116 23.2633 37.4092 23.1166C38.9946 22.9372 40.3609 22.3498 41.3668 21.0618C41.4076 21.0097 41.442 20.9516 41.5242 20.8307C41.3861 20.9033 41.3163 20.935 41.2513 20.9742C40.6552 21.3337 40.0161 21.5992 39.333 21.712C38.0365 21.9253 36.7304 22.0833 35.4334 22.2945C34.5285 22.4417 33.6321 22.64 32.7315 22.8152C32.732 22.8356 32.7325 22.8555 32.7336 22.8759V22.8754ZM39.4968 29.2139C39.261 29.5826 39.0328 29.9566 38.7868 30.3182C38.6536 30.5132 38.638 30.7051 38.689 30.9281C38.9039 31.869 38.9957 32.8174 38.841 33.7793C38.8308 33.8443 38.8394 33.912 38.8394 33.999C39.297 33.9324 39.7202 33.8593 40.1461 33.8131C40.3851 33.7873 40.4624 33.6718 40.4694 33.4461C40.4936 32.617 40.4221 31.797 40.1928 31.0001C40.0188 30.3945 39.8013 29.8007 39.6036 29.2021C39.5682 29.2064 39.5328 29.2102 39.4973 29.2145L39.4968 29.2139ZM10.9737 33.9313C10.8598 32.8733 10.8802 31.826 11.1976 30.7986C11.2175 30.7346 11.2245 30.6438 11.1933 30.5912C10.9237 30.135 10.6445 29.6847 10.3679 29.2327C10.341 29.2354 10.3142 29.2381 10.2873 29.2408C10.1058 29.7336 9.90602 30.2204 9.74705 30.7201C9.4608 31.6218 9.3276 32.5487 9.384 33.4961C9.3899 33.5976 9.47154 33.761 9.5478 33.7809C10.0038 33.8991 10.4689 33.9835 10.9619 34.0856C10.9683 33.9996 10.9758 33.9646 10.9726 33.9313H10.9737ZM14.5349 26.6443C14.9372 26.7222 15.3469 26.7797 15.7556 26.7991C17.0666 26.8609 18.2562 26.4659 19.3657 25.7921C19.9952 25.41 20.645 25.0753 21.3872 24.9683C21.4366 24.9614 21.4823 24.9313 21.5897 24.8877C21.4436 24.8184 21.3453 24.7324 21.2465 24.7319C20.9092 24.7292 20.5591 24.705 20.2374 24.784C19.5618 24.9506 18.899 25.1709 18.2352 25.3816C16.9549 25.7873 15.6509 26.0129 14.3034 25.9119C14.0118 25.8899 13.7207 25.8593 13.355 25.8254C13.6955 26.2757 14.0612 26.553 14.5349 26.6443ZM28.6219 24.928C28.7121 24.9501 28.804 24.9678 28.8926 24.9952C29.3104 25.1231 29.7406 25.2225 30.1407 25.3923C30.5585 25.5702 30.9484 25.8141 31.3486 26.0339C32.5145 26.675 33.7556 26.9275 35.0779 26.7518C35.6552 26.675 36.1606 26.4487 36.5499 26.0006C36.6085 25.9334 36.6536 25.8544 36.7428 25.7271C35.2906 26.0742 33.9329 25.964 32.5913 25.5578C31.8378 25.3294 31.0918 25.0763 30.3346 24.863C29.9855 24.7647 29.6182 24.705 29.2562 24.6846C29.0446 24.6728 28.8265 24.7738 28.6117 24.8243C28.6155 24.8587 28.6192 24.8931 28.623 24.9275L28.6219 24.928ZM23.9425 40.6901C23.9092 40.7777 23.9012 40.8884 23.9211 40.9798C24.0473 41.5687 24.3201 42.0856 24.7175 42.537C24.8303 42.6654 24.9613 42.6896 25.0865 42.5569C25.4936 42.1265 25.7572 41.6117 25.9415 41.055C26.0612 40.6939 25.8308 40.4005 25.7277 40.0835C25.6944 39.9819 25.6498 39.8836 25.6106 39.7836C25.3953 39.2366 25.1799 38.6901 24.9441 38.0915C24.5956 38.9921 24.2648 39.839 23.942 40.6896L23.9425 40.6901ZM41.7309 28.2784C41.703 29.2558 41.4463 30.1462 40.7605 30.8792C40.7062 30.9372 40.6622 31.0441 40.674 31.1183C40.7497 31.5922 40.8421 32.064 40.935 32.5702C41.7863 32.265 42.3614 31.7223 42.6031 30.8722C42.9227 29.7491 42.5258 28.8109 41.7653 27.9055C41.7492 28.0731 41.7331 28.1752 41.7304 28.2779L41.7309 28.2784ZM7.41461 31.0726C7.67132 31.754 8.14393 32.2586 8.87648 32.5385C8.97637 32.0178 9.07411 31.5466 9.15091 31.0721C9.1638 30.9931 9.10526 30.8829 9.04726 30.8152C8.6638 30.3687 8.44039 29.8485 8.32707 29.2779C8.24221 28.8502 8.16702 28.4208 8.07304 27.9157C7.39205 28.9254 6.98228 29.9243 7.41515 31.0726H7.41461ZM30.5892 21.3971C30.6364 21.4347 30.6622 21.4422 30.688 21.4406C32.4484 21.3176 34.015 20.7394 35.3308 19.5223C36.2288 18.6916 37.0236 17.7813 37.6724 16.7334C35.5397 18.6351 33.2632 20.3138 30.5897 21.3971H30.5892ZM19.7492 21.4025C16.891 20.453 14.5258 18.7329 12.3432 16.72C12.3507 16.7979 12.3781 16.8495 12.4114 16.8979C13.1509 17.9608 14.0177 18.9097 15 19.7512C15.7632 20.4046 16.6085 20.9259 17.5967 21.1472C18.2911 21.3031 19.0021 21.3848 19.7052 21.4997C19.7197 21.4675 19.7342 21.4353 19.7487 21.403L19.7492 21.4025ZM14.9243 27.6841C15.3346 27.7905 15.7395 27.9463 16.1568 27.9936C17.4581 28.1409 18.6278 27.7352 19.7207 27.0565C20.1917 26.7636 20.6611 26.467 21.1445 26.1967C21.4941 26.0011 21.5097 26.007 21.4162 25.5234C21.0408 25.6459 20.6579 25.733 20.3088 25.8931C19.6998 26.1731 19.1144 26.5046 18.5134 26.8039C17.8056 27.1564 17.0757 27.4616 16.2809 27.5353C15.84 27.5761 15.3921 27.5428 14.9474 27.5428C14.9393 27.5901 14.9313 27.6374 14.9232 27.6846L14.9243 27.6841ZM31.7213 26.7421C31.2599 26.5046 30.8083 26.2462 30.3357 26.0355C29.8888 25.8367 29.4216 25.6825 28.9592 25.5218C28.848 25.4831 28.6708 25.3869 28.6278 25.5927C28.5913 25.7679 28.5757 25.9587 28.8029 26.0737C29.5032 26.4283 30.188 26.8147 30.8931 27.1591C31.4205 27.417 31.9538 27.6852 32.5134 27.8491C33.4313 28.1183 34.3496 28.0554 35.2218 27.5949C33.9592 27.6879 32.8185 27.3063 31.7223 26.7421H31.7213ZM29.2025 23.3445C29.8937 23.2537 30.5553 23.36 31.1971 23.6266C31.3781 23.7018 31.5677 23.7598 31.7583 23.805C33.2309 24.1569 34.7202 24.1392 36.2137 23.9914C36.3571 23.9775 36.4995 23.956 36.6429 23.9382C36.6429 23.9141 36.6429 23.8893 36.6429 23.8652C35.9221 23.7545 35.2019 23.6416 34.4812 23.5336C33.1912 23.3402 31.9006 23.1467 30.6096 22.9613C30.3545 22.9248 30.0929 22.8958 29.8373 22.9108C29.5252 22.9291 29.2266 23.0167 29.0204 23.3461C29.1053 23.3461 29.1552 23.3515 29.2035 23.345L29.2025 23.3445ZM20.5048 22.9447C20.0602 22.9689 19.6149 23.0043 19.1729 23.0613C17.5768 23.2676 15.9812 23.4815 14.3867 23.7002C14.0177 23.7507 13.6536 23.8329 13.2873 23.9006C13.29 23.9259 13.2932 23.9511 13.2959 23.9769C13.9377 24.0199 14.5789 24.0892 15.2213 24.1C16.5499 24.1215 17.8727 24.0747 19.1117 23.4981C19.2078 23.4535 19.3153 23.4213 19.4205 23.4111C19.9517 23.359 20.4834 23.3165 21.036 23.2687C20.9178 23.0736 20.746 22.9323 20.5043 22.9458L20.5048 22.9447ZM19.304 29.6454C20.4586 29.5154 21.2911 28.8942 21.8679 27.9087C22.0564 27.5868 22.0956 27.3149 22.0328 27.0876C20.2938 28.7986 19.043 29.4036 17.0408 29.337C17.7814 29.5412 18.5263 29.7325 19.304 29.6449V29.6454ZM28.2046 27.0468C28.5311 28.122 29.1461 28.9732 30.1998 29.445C30.9748 29.7921 32.7331 29.6884 33.2342 29.301C33.1267 29.301 33.029 29.2994 32.9313 29.301C31.5875 29.3284 30.3953 28.9431 29.3958 28.0173C29.0236 27.6728 28.6391 27.3413 28.2605 27.0038C28.2417 27.0183 28.2234 27.0323 28.2046 27.0468ZM33.0188 28.323C31.8926 28.1881 30.891 27.7475 29.9538 27.121C29.6004 26.8845 29.2003 26.7174 28.8185 26.5245C28.7299 26.4799 28.6289 26.4584 28.5048 26.417C29.044 27.905 31.7814 29.0237 33.3324 28.3816C33.1923 28.3553 33.1058 28.3338 33.0183 28.323H33.0188ZM36.5204 13.0838C36.5424 13.0193 36.4914 12.8823 36.4323 12.8446C35.7825 12.4298 35.0591 12.2391 34.2658 12.1418C34.3759 12.5513 34.4689 12.9295 34.5843 13.3009C34.609 13.3798 34.7052 13.4572 34.7868 13.4943C35.224 13.6926 35.667 13.878 36.1305 14.0779C36.2637 13.7458 36.4044 13.4196 36.5199 13.0843L36.5204 13.0838ZM27.2605 30.4944C27.6026 31.4036 28.8776 31.7771 29.6676 31.1645C28.0451 30.8287 27.6498 29.5294 27.304 28.1677C27.0967 28.7185 27.0795 30.0124 27.261 30.495L27.2605 30.4944ZM21.6144 26.4751C21.2352 26.6395 20.8528 26.805 20.5086 27.0285C19.5462 27.654 18.5333 28.1408 17.3813 28.2902C17.2325 28.3096 17.0843 28.3359 16.8593 28.3714C18.5687 28.977 21.1762 27.9334 21.6149 26.4751H21.6144ZM44.4989 18.3498C44.4205 18.6566 44.362 18.972 44.2567 19.2708C44.1472 19.5814 43.985 19.8732 43.8636 20.1805C43.8351 20.2526 43.8475 20.3901 43.8974 20.4353C44.2191 20.7297 44.5569 21.007 44.9055 21.3041C45.2814 20.5911 44.9925 18.6427 44.4989 18.3498ZM20.4844 31.2236C21.3287 31.8367 22.717 31.2999 22.8647 30.2682C22.9393 29.7486 22.8776 29.2096 22.8776 28.6626C22.7218 29.2704 22.4705 29.8244 22.0537 30.2924C21.6246 30.7744 21.0811 31.0361 20.4146 31.1291C20.4543 31.1839 20.4651 31.2097 20.4844 31.2236ZM6.09989 20.3869C6.14608 20.3358 6.16864 20.2128 6.13963 20.1537C5.85822 19.583 5.57304 19.0156 5.51772 18.3331C4.92803 19.1515 4.74597 20.5841 5.15843 21.3869C5.49194 21.036 5.80236 20.7174 6.09989 20.3869ZM14.1702 12.5856C13.8206 12.7904 13.8142 12.8156 13.9919 13.166C14.0526 13.2858 14.1004 13.4164 14.1837 13.5185C14.2374 13.5846 14.3485 13.6496 14.427 13.6421C14.7111 13.6141 14.9936 13.5642 15.2728 13.5029C15.3555 13.4846 15.4672 13.4185 15.493 13.3476C15.6353 12.9559 15.7551 12.5556 15.8963 12.116C15.2546 12.1853 14.6847 12.2842 14.1713 12.5856H14.1702ZM27.7277 27.4294C27.6933 29.1392 28.9382 30.5192 30.2191 30.1156C28.9613 29.5648 28.3378 28.503 27.7277 27.4294ZM11.5747 24.0167C10.8426 23.2483 10.6713 23.2257 9.98657 23.7958C9.95918 23.8184 9.91514 23.8372 9.90816 23.8652C9.88776 23.942 9.84586 24.0452 9.87809 24.0984C10.0666 24.4079 10.2739 24.7061 10.4903 25.0323C10.8652 24.6809 11.2197 24.3488 11.5747 24.0167ZM40.1267 23.9812C40.159 23.9167 40.1214 23.7491 40.0677 23.7206C39.8367 23.5992 39.6649 23.2327 39.384 23.3703C39.0752 23.5218 38.833 23.8109 38.5478 24.0522C38.8679 24.417 39.1665 24.7572 39.4968 25.1328C39.7266 24.7185 39.9382 24.3552 40.1262 23.9807L40.1267 23.9812ZM21.9103 29.6487C22.3045 29.2139 22.5854 28.2612 22.4205 27.8684C21.9125 28.9689 21.1165 29.7427 19.8974 30.1339C20.6439 30.3741 21.4431 30.164 21.9103 29.6492V29.6487ZM24.9817 31.9555C24.7895 31.5116 24.6214 31.1226 24.4527 30.7336C24.4119 30.7475 24.3711 30.7615 24.3303 30.7755C24.5134 31.5939 24.6966 32.4122 24.8802 33.2306C24.913 33.2269 24.9463 33.2226 24.9791 33.2188C25.3147 32.3967 25.5526 31.5503 25.5822 30.6438C25.3867 31.071 25.1907 31.4987 24.9817 31.9555ZM25.1982 16.238C25.7234 16.1021 26.2481 15.9446 26.7492 15.7388C27.1756 15.5636 27.4764 15.217 27.6729 14.7866C27.1955 15.3503 26.5784 15.6733 25.8749 15.8312C25.4828 15.9188 25.0816 15.9661 24.6837 16.0247C24.1649 16.1015 23.7116 16.3089 23.3518 16.641C23.9635 16.5094 24.587 16.3965 25.1982 16.238ZM32.8179 22.3826C31.9893 22.1521 31.1547 21.9527 30.2879 22.1225C30.0859 22.1623 29.8985 22.2773 29.7041 22.3579C29.7143 22.3853 29.725 22.4132 29.7352 22.4406H32.8598C32.8448 22.4191 32.8351 22.3874 32.8179 22.3826ZM20.4737 22.4369C20.4737 22.4063 20.4737 22.3762 20.4737 22.3455C19.4769 21.82 18.4774 22.1435 17.4785 22.4369H20.4737Z" fill="#FFE589"/>
<path d="M61.4161 23.2433V12.7898H66.5595C68.6966 12.7898 69.9426 13.7677 69.9426 15.3905V15.405C69.9426 16.5278 69.095 17.4696 67.9577 17.6145V17.7593C69.3051 17.7956 70.4135 18.8895 70.4135 20.1934V20.2079C70.4135 22.0335 68.9646 23.2433 66.7262 23.2433H61.4161ZM65.7192 14.8906H64.4877V16.977H65.683C66.4654 16.977 66.958 16.564 66.958 15.941V15.9265C66.958 15.289 66.5016 14.8906 65.7192 14.8906ZM65.8206 18.7373H64.4877V21.1424H65.7989C66.7551 21.1424 67.284 20.7078 67.284 19.9254V19.9109C67.284 19.1647 66.7406 18.7373 65.8206 18.7373Z" fill="white"/>
<path d="M72.239 23.2433V12.7898H75.3106V23.2433H72.239Z" fill="white"/>
<path d="M77.7157 23.2433V12.7898H82.4245C85.1701 12.7898 86.5755 14.101 86.5755 16.3395V16.354C86.5755 17.5782 85.9742 18.7591 84.8948 19.2806L86.8797 23.2433H83.4459L81.7942 19.737H80.7873V23.2433H77.7157ZM80.7873 17.7086H82.0695C82.9099 17.7086 83.4459 17.1798 83.4459 16.3902V16.3757C83.4459 15.6078 82.9099 15.0572 82.0695 15.0572H80.7873V17.7086Z" fill="white"/>
<path d="M90.98 23.2433V15.2238H88.075V12.7898H96.9565V15.2238H94.0516V23.2433H90.98Z" fill="white"/>
<path d="M98.8111 23.2433V12.7898H101.883V16.7596H105.563V12.7898H108.634V23.2433H105.563V19.1937H101.883V23.2433H98.8111Z" fill="white"/>
<path d="M111.039 23.2433V12.7898H115.748C118.494 12.7898 119.899 14.101 119.899 16.3395V16.354C119.899 17.5782 119.298 18.7591 118.218 19.2806L120.203 23.2433H116.77L115.118 19.737H114.111V23.2433H111.039ZM114.111 17.7086H115.393C116.234 17.7086 116.77 17.1798 116.77 16.3902V16.3757C116.77 15.6078 116.234 15.0572 115.393 15.0572H114.111V17.7086Z" fill="white"/>
<path d="M121.949 23.2433V12.7898H125.021V23.2433H121.949Z" fill="white"/>
<path d="M132.185 23.533C128.868 23.533 126.904 21.4757 126.904 18.0129V17.9984C126.904 14.5791 128.868 12.5 132.091 12.5C134.714 12.5 136.684 14.043 136.901 16.2236L136.909 16.296H133.888L133.873 16.2308C133.714 15.4991 132.975 15.0065 132.091 15.0065C130.787 15.0065 130.034 16.1004 130.034 17.9549V17.9694C130.034 19.8674 130.91 21.0265 132.258 21.0265C133.258 21.0265 133.968 20.4687 134.054 19.6066L134.069 19.4618H132.475V17.4189H137.025V18.7953C137.025 21.7654 135.221 23.533 132.185 23.533Z" fill="white"/>
<path d="M138.915 23.2433V12.7898H141.987V16.7596H145.667V12.7898H148.739V23.2433H145.667V19.1937H141.987V23.2433H138.915Z" fill="white"/>
<path d="M153.498 23.2433V15.2238H150.593V12.7898H159.475V15.2238H156.57V23.2433H153.498Z" fill="white"/>
<path d="M64.6322 37.5C62.3443 37.5 60.9251 36.5029 60.8395 34.8022L60.8333 34.6799H63.2986L63.3048 34.7288C63.3598 35.1693 63.8737 35.5118 64.6628 35.5118C65.4397 35.5118 65.9169 35.1815 65.9169 34.7227V34.7166C65.9169 34.2945 65.5621 34.1477 64.5833 33.9641L63.6963 33.799C61.7999 33.4442 60.9802 32.5449 60.9802 31.1379V31.1318C60.9802 29.3211 62.5095 28.1832 64.6016 28.1832C66.963 28.1832 68.1559 29.321 68.3027 30.9605L68.3088 31.0278H65.9291L65.9169 30.9605C65.8312 30.4772 65.3419 30.1714 64.6322 30.1714C63.9165 30.1714 63.5495 30.4834 63.5495 30.8871V30.8932C63.5495 31.3337 63.9287 31.5417 64.8096 31.7068L65.6967 31.872C67.5931 32.2268 68.4862 32.9854 68.4862 34.4597V34.4658C68.4862 36.3193 67.067 37.5 64.6322 37.5Z" fill="white"/>
<path d="M74.1509 37.5C71.4409 37.5 69.7036 35.7321 69.7036 32.8447V32.8324C69.7036 29.9573 71.4531 28.1832 74.1509 28.1832C76.8487 28.1832 78.5921 29.9573 78.5921 32.8324V32.8447C78.5921 35.7321 76.8487 37.5 74.1509 37.5ZM74.1509 35.3834C75.2153 35.3834 75.9494 34.3924 75.9494 32.8447V32.8324C75.9494 31.2908 75.2153 30.2998 74.1509 30.2998C73.0803 30.2998 72.3463 31.2908 72.3463 32.8324V32.8447C72.3463 34.3924 73.0803 35.3834 74.1509 35.3834Z" fill="white"/>
<path d="M84.0733 37.5C81.7426 37.5 80.1888 36.2092 80.1888 34.2027V28.4279H82.7825V33.9458C82.7825 34.8695 83.2352 35.3834 84.0794 35.3834C84.9236 35.3834 85.3763 34.8695 85.3763 33.9458V28.4279H87.9701V34.2027C87.9701 36.197 86.4346 37.5 84.0733 37.5Z" fill="white"/>
<path d="M90.001 37.2553V28.4279H92.5948V35.1999H96.1918V37.2553H90.001Z" fill="white"/>
<path d="M100.731 37.2553V28.4279H103.325V31.7802H106.432V28.4279H109.026V37.2553H106.432V33.8357H103.325V37.2553H100.731Z" fill="white"/>
<path d="M111.057 37.2553V28.4279H117.285V30.4834H113.651V31.9148H117.058V33.7745H113.651V35.1999H117.285V37.2553H111.057Z" fill="white"/>
<path d="M118.618 37.2553L121.499 28.4279H124.754L127.635 37.2553H124.907L124.46 35.4996H121.793L121.347 37.2553H118.618ZM123.066 30.5323L122.264 33.6705H123.989L123.188 30.5323H123.066Z" fill="white"/>
<path d="M129.091 37.2553V28.4279H131.685V35.1999H135.282V37.2553H129.091Z" fill="white"/>
<path d="M136.885 37.2553V28.4279H139.478V37.2553H136.885Z" fill="white"/>
<path d="M141.509 37.2553V28.4279H143.522L146.856 32.808H146.978V28.4279H149.425V37.2553H147.431L144.079 32.808H143.956V37.2553H141.509Z" fill="white"/>
<path d="M155.475 37.5C152.674 37.5 151.016 35.7627 151.016 32.8386V32.8263C151.016 29.9389 152.674 28.1832 155.396 28.1832C157.61 28.1832 159.274 29.4862 159.458 31.3276L159.464 31.3887H156.913L156.901 31.3337C156.766 30.7158 156.142 30.2998 155.396 30.2998C154.295 30.2998 153.659 31.2236 153.659 32.7896V32.8018C153.659 34.4046 154.399 35.3834 155.537 35.3834C156.381 35.3834 156.98 34.9123 157.054 34.1844L157.066 34.062H155.72V32.3369H159.562V33.4992C159.562 36.0074 158.039 37.5 155.475 37.5Z" fill="white"/>
</svg>
