<svg width="14" height="14" viewBox="0 0 14 14" fill="none" xmlns="http://www.w3.org/2000/svg">
<path fill-rule="evenodd" clip-rule="evenodd" d="M7 0C3.13532 0 0 3.13532 0 7C0 10.8647 3.13532 14 7 14C10.8647 14 14 10.8647 14 7C14 3.13532 10.8615 0 7 0ZM9.20388 7.79251C9.59224 8.18088 9.59224 8.81552 9.20388 9.20704C8.81552 9.5954 8.18087 9.5954 7.78935 9.20704L6.99684 8.41452L6.20433 9.20704C5.81597 9.5954 5.18133 9.5954 4.78981 9.20704C4.40144 8.81867 4.40144 8.18403 4.78981 7.79251L5.58232 7L4.78981 6.20749C4.40144 5.81912 4.40144 5.18448 4.78981 4.79296C5.17817 4.4046 5.81281 4.4046 6.20433 4.79296L6.99684 5.58548L7.78935 4.79296C8.17772 4.4046 8.81236 4.4046 9.20388 4.79296C9.59224 5.18133 9.59224 5.81597 9.20388 6.20749L8.41137 7L9.20388 7.79251Z" fill="#F74660"/>
</svg>
