<svg width="24" height="24" viewBox="0 0 24 24" fill="none" xmlns="http://www.w3.org/2000/svg">
<path d="M12 24C18.6274 24 24 18.6274 24 12C24 5.37258 18.6274 0 12 0C5.37258 0 0 5.37258 0 12C0 18.6274 5.37258 24 12 24Z" fill="url(#paint0_linear_1706_4800)"/>
<path fill-rule="evenodd" clip-rule="evenodd" d="M14.5142 10.1265C15.3853 10.7509 16.4529 11.1135 17.6061 11.1135V8.89274C17.3895 8.89274 17.168 8.8726 16.9565 8.82728V10.5747C15.8033 10.5747 14.7357 10.2071 13.8646 9.58767V14.1147C13.8646 16.3808 12.0265 18.2138 9.76049 18.2138C8.91449 18.2138 8.12894 17.9569 7.4743 17.5188C8.21958 18.2792 9.25692 18.7526 10.4051 18.7526C12.6711 18.7526 14.5091 16.9146 14.5091 14.6535V10.1265H14.5142ZM15.3148 7.88561C14.8717 7.39715 14.5746 6.77273 14.5142 6.0778V5.79077H13.8998C14.0559 6.67201 14.5847 7.42736 15.3148 7.88561ZM8.90947 15.7815C8.66273 15.4542 8.52676 15.0564 8.52676 14.6435C8.52676 13.6061 9.3677 12.7702 10.4051 12.7702C10.5964 12.7702 10.7878 12.8004 10.9741 12.8558V10.5898C10.7576 10.5596 10.541 10.5495 10.3245 10.5545V12.322C10.1382 12.2616 9.94682 12.2364 9.75546 12.2364C8.71811 12.2364 7.87715 13.0774 7.87715 14.1097C7.87715 14.8399 8.29512 15.4744 8.90947 15.7866V15.7815Z" fill="#FF1753"/>
<path fill-rule="evenodd" clip-rule="evenodd" d="M13.8634 9.58767C14.7346 10.2121 15.8021 10.5747 16.9553 10.5747V8.82728C16.3107 8.69132 15.7417 8.35393 15.3137 7.88561C14.5785 7.42736 14.0497 6.67201 13.8987 5.79077H12.2822V14.6536C12.2822 15.6859 11.4412 16.5218 10.4039 16.5218C9.79458 16.5218 9.25074 16.2297 8.90832 15.7815C8.29397 15.4744 7.876 14.8399 7.876 14.1047C7.876 13.0673 8.71696 12.2314 9.75431 12.2314C9.9507 12.2314 10.1421 12.2616 10.3233 12.317V10.5495C8.09757 10.5948 6.30487 12.4127 6.30487 14.6485C6.30487 15.7664 6.75305 16.7786 7.47315 17.5138C8.12779 17.9519 8.91334 18.2087 9.75933 18.2087C12.0254 18.2087 13.8634 16.3707 13.8634 14.1097V9.58263V9.58767Z" fill="white"/>
<path fill-rule="evenodd" clip-rule="evenodd" d="M16.9565 8.82743V8.35408C16.3774 8.35408 15.8083 8.19294 15.3148 7.88576C15.7529 8.36415 16.327 8.69147 16.9565 8.82743ZM13.8998 5.79092C13.8847 5.70532 13.8747 5.61971 13.8646 5.5341V5.24707H11.6338V14.1098C11.6338 15.1422 10.7928 15.9781 9.75548 15.9781C9.45334 15.9781 9.16631 15.9076 8.90949 15.7767C9.25191 16.2248 9.79575 16.5169 10.4051 16.5169C11.4374 16.5169 12.2783 15.681 12.2834 14.6487V5.79092H13.8998ZM10.3245 10.5547V10.0511C10.1382 10.0259 9.95186 10.0108 9.7605 10.0108C7.49445 10.0108 5.65643 11.8488 5.65643 14.1098C5.65643 15.5299 6.37654 16.7788 7.47432 17.519C6.74918 16.7788 6.30604 15.7666 6.30604 14.6537C6.30604 12.4179 8.09371 10.6 10.3245 10.5547Z" fill="#00C9D0"/>
<defs>
<linearGradient id="paint0_linear_1706_4800" x1="3.5149" y1="3.5149" x2="20.4851" y2="20.4851" gradientUnits="userSpaceOnUse">
<stop stop-color="#23004A"/>
<stop offset="0.96" stop-color="#010003"/>
<stop offset="1"/>
</linearGradient>
</defs>
</svg>
