<svg width="24" height="24" viewBox="0 0 24 24" fill="none" xmlns="http://www.w3.org/2000/svg">
<path d="M12 24C18.6274 24 24 18.6274 24 12C24 5.37258 18.6274 0 12 0C5.37258 0 0 5.37258 0 12C0 18.6274 5.37258 24 12 24Z" fill="url(#paint0_linear_1706_4805)"/>
<path d="M5.82391 18.1938L6.71019 14.8803C6.20662 13.9739 5.94477 12.9567 5.94477 11.9244C5.94477 8.55047 8.68921 5.80603 12.0631 5.80603C15.437 5.80603 18.1814 8.55047 18.1814 11.9244C18.1814 15.2983 15.437 18.0427 12.0631 18.0427C11.0509 18.0427 10.0488 17.7859 9.15249 17.3025L5.82391 18.1938ZM9.31867 16.0587L9.53017 16.1845C10.3006 16.6428 11.1768 16.8845 12.0631 16.8845C14.7975 16.8845 17.0232 14.6587 17.0232 11.9244C17.0232 9.19 14.7975 6.96424 12.0631 6.96424C9.32874 6.96424 7.10297 9.19 7.10297 11.9244C7.10297 12.8258 7.35475 13.7171 7.82811 14.4976L7.95904 14.7091L7.46554 16.5572L9.32874 16.0587H9.31867Z" fill="white"/>
<path fill-rule="evenodd" clip-rule="evenodd" d="M14.3401 12.775C14.0883 12.6239 13.761 12.4578 13.4639 12.5786C13.2373 12.6693 13.0912 13.0268 12.9452 13.2081C12.8697 13.3038 12.779 13.3138 12.6632 13.2685C11.8071 12.9261 11.1525 12.3571 10.6842 11.5715C10.6036 11.4506 10.6187 11.355 10.7144 11.2391C10.8554 11.073 11.0367 10.8816 11.0719 10.655C11.1122 10.4284 11.0065 10.1665 10.9108 9.96511C10.7899 9.70829 10.659 9.34069 10.4022 9.19465C10.1655 9.05869 9.85329 9.13423 9.64179 9.30544C9.27923 9.60254 9.10298 10.0658 9.10802 10.5291C9.10802 10.66 9.12312 10.791 9.15837 10.9169C9.2339 11.219 9.36987 11.506 9.53101 11.7729C9.65187 11.9743 9.77776 12.1758 9.91876 12.3621C10.377 12.9815 10.946 13.5203 11.6007 13.9282C11.928 14.1296 12.2855 14.3059 12.6531 14.4267C13.066 14.5627 13.4337 14.7037 13.8768 14.6181C14.3401 14.5274 14.7983 14.2404 14.9846 13.7922C15.04 13.6613 15.0652 13.5102 15.035 13.3692C14.9695 13.0772 14.5818 12.9059 14.3451 12.7649L14.3401 12.775Z" fill="white"/>
<defs>
<linearGradient id="paint0_linear_1706_4805" x1="3.5149" y1="3.5149" x2="20.4851" y2="20.4851" gradientUnits="userSpaceOnUse">
<stop stop-color="#00FB73"/>
<stop offset="1" stop-color="#00B25B"/>
</linearGradient>
</defs>
</svg>
