<svg width="15" height="14" viewBox="0 0 15 14" fill="none" xmlns="http://www.w3.org/2000/svg">
<path d="M13.3464 0H11.9463V1.40009C11.9463 1.68024 11.713 1.86679 11.4796 1.86679C11.2463 1.86679 11.0129 1.68024 11.0129 1.40009V0H3.54672V1.40009C3.54672 1.68024 3.31337 1.86679 3.08002 1.86679C2.84667 1.86679 2.61332 1.68024 2.61332 1.40009V0H1.21323C0.513182 0 0 0.606769 0 1.40009V3.08002H14.9331V1.40009C14.9331 0.606769 14.0933 0 13.3464 0ZM0 4.0599V12.5999C0 13.44 0.513182 14 1.26002 14H13.3932C14.1398 14 14.9799 13.3932 14.9799 12.5999V4.0599H0ZM4.15318 11.8999H3.03323C2.84667 11.8999 2.65981 11.7598 2.65981 11.5264V10.3597C2.65981 10.1731 2.79988 9.98628 3.03323 9.98628H4.19997C4.38652 9.98628 4.57339 10.1263 4.57339 10.3597V11.5264C4.5266 11.7598 4.38683 11.8999 4.15349 11.8999H4.15318ZM4.15318 7.69989H3.03323C2.84667 7.69989 2.65981 7.55982 2.65981 7.32647V6.15973C2.65981 5.97317 2.79988 5.78631 3.03323 5.78631H4.19997C4.38652 5.78631 4.57339 5.92638 4.57339 6.15973V7.32647C4.5266 7.55982 4.38683 7.69989 4.15349 7.69989H4.15318ZM7.88645 11.8999H6.7197C6.53315 11.8999 6.34628 11.7598 6.34628 11.5264V10.3597C6.34628 10.1731 6.48635 9.98628 6.7197 9.98628H7.88645C8.073 9.98628 8.25987 10.1263 8.25987 10.3597V11.5264C8.25987 11.7598 8.1198 11.8999 7.88645 11.8999ZM7.88645 7.69989H6.7197C6.53315 7.69989 6.34628 7.55982 6.34628 7.32647V6.15973C6.34628 5.97317 6.48635 5.78631 6.7197 5.78631H7.88645C8.073 5.78631 8.25987 5.92638 8.25987 6.15973V7.32647C8.25987 7.55982 8.1198 7.69989 7.88645 7.69989ZM11.6197 11.8999H10.453C10.2664 11.8999 10.0796 11.7598 10.0796 11.5264V10.3597C10.0796 10.1731 10.2196 9.98628 10.453 9.98628H11.6197C11.8063 9.98628 11.9931 10.1263 11.9931 10.3597V11.5264C11.9931 11.7598 11.8531 11.8999 11.6197 11.8999ZM11.6197 7.69989H10.453C10.2664 7.69989 10.0796 7.55982 10.0796 7.32647V6.15973C10.0796 5.97317 10.2196 5.78631 10.453 5.78631H11.6197C11.8063 5.78631 11.9931 5.92638 11.9931 6.15973V7.32647C11.9931 7.55982 11.8531 7.69989 11.6197 7.69989Z" fill="#D4BC66"/>
</svg>
