<svg width="14" height="15" viewBox="0 0 14 15" fill="none" xmlns="http://www.w3.org/2000/svg">
<path d="M11.8652 1.75781H9.25254L8.9669 0.901172C8.78701 0.362109 8.28457 0 7.71621 0H5.46738C4.89902 0 4.39658 0.362109 4.21641 0.901172L3.93105 1.75781H1.31836C0.591504 1.75781 0 2.34932 0 3.07617V3.95508C0 4.44463 0.440625 4.39453 0.913477 4.39453H12.7441C12.987 4.39453 13.1836 4.19795 13.1836 3.95508V3.07617C13.1836 2.34932 12.5921 1.75781 11.8652 1.75781ZM4.85771 1.75781L5.0502 1.1792C5.11025 0.999316 5.27812 0.878906 5.46738 0.878906H7.71621C7.90547 0.878906 8.07334 0.999609 8.13281 1.1792L8.32559 1.75781H4.85771ZM0.986426 5.33203L1.68721 13.8009C1.74932 14.4847 2.31387 15 3 15H10.1839C10.87 15 11.4346 14.4847 11.497 13.7971L12.1972 5.33203H0.986426ZM4.39453 12.8027C4.39453 13.3819 3.51562 13.3843 3.51562 12.8027V6.65039C3.51562 6.07119 4.39453 6.06885 4.39453 6.65039V12.8027ZM7.03125 12.8027C7.03125 13.3819 6.15234 13.3843 6.15234 12.8027V6.65039C6.15234 6.07119 7.03125 6.06885 7.03125 6.65039V12.8027ZM9.66797 12.8027C9.66797 13.3819 8.78906 13.3843 8.78906 12.8027V6.65039C8.78906 6.40752 8.98564 6.21094 9.22852 6.21094C9.47139 6.21094 9.66797 6.40752 9.66797 6.65039V12.8027Z" fill="white"/>
</svg>
