<svg width="24" height="15" viewBox="0 0 24 15" fill="none" xmlns="http://www.w3.org/2000/svg">
<path d="M11.6512 3.75C9.58222 3.75 7.90118 5.43103 7.90118 7.5C7.90118 9.56897 9.58222 11.25 11.6512 11.25C13.7201 11.25 15.4012 9.56897 15.4012 7.5C15.4012 5.43103 13.7201 3.75 11.6512 3.75ZM11.3668 6.38773C10.9011 6.38773 10.5132 6.77566 10.5132 7.24138H9.27157C9.29733 6.07759 10.2283 5.14665 11.3663 5.14665V6.38823L11.3668 6.38773ZM23.0305 6.72414C21.7632 5.14665 17.2373 0 11.6512 0C6.06508 0 1.53871 5.14665 0.271872 6.72414C-0.0902984 7.16359 -0.0902984 7.81014 0.271872 8.27586C1.53921 9.85335 6.06508 15 11.6512 15C17.2373 15 21.7632 9.85335 23.0305 8.27586C23.3927 7.83641 23.3927 7.18986 23.0305 6.72414ZM11.6512 12.931C8.65128 12.931 6.22015 10.4999 6.22015 7.5C6.22015 4.5001 8.65128 2.06897 11.6512 2.06897C14.6511 2.06897 17.0822 4.5001 17.0822 7.5C17.0822 10.4999 14.6511 12.931 11.6512 12.931Z" fill="#C2D5D6"/>
</svg>
