<svg width="24" height="24" viewBox="0 0 24 24" fill="none" xmlns="http://www.w3.org/2000/svg">
<path d="M12 24C18.6274 24 24 18.6274 24 12C24 5.37258 18.6274 0 12 0C5.37258 0 0 5.37258 0 12C0 18.6274 5.37258 24 12 24Z" fill="url(#paint0_linear_1706_4810)"/>
<path d="M15.3074 7.98608C14.9045 7.98608 14.5772 8.3134 14.5772 8.71626C14.5772 9.11911 14.9045 9.44643 15.3074 9.44643C15.7102 9.44643 16.0376 9.11911 16.0376 8.71626C16.0376 8.3134 15.7102 7.98608 15.3074 7.98608Z" fill="white"/>
<path d="M12.0501 8.92297C10.353 8.92297 8.97327 10.3027 8.97327 11.9998C8.97327 13.6968 10.353 15.0766 12.0501 15.0766C13.7471 15.0766 15.1269 13.6968 15.1269 11.9998C15.1269 10.3027 13.7471 8.92297 12.0501 8.92297ZM12.0501 13.9687C10.9624 13.9687 10.0811 13.0824 10.0811 11.9998C10.0811 10.9171 10.9674 10.0308 12.0501 10.0308C13.1327 10.0308 14.019 10.9171 14.019 11.9998C14.019 13.0824 13.1327 13.9687 12.0501 13.9687Z" fill="white"/>
<path d="M14.4911 18.2441H9.50578C7.43612 18.2441 5.75421 16.5622 5.75421 14.4925V9.50719C5.75421 7.43753 7.43612 5.75562 9.50578 5.75562H14.4911C16.5608 5.75562 18.2427 7.43753 18.2427 9.50719V14.4925C18.2427 16.5622 16.5608 18.2441 14.4911 18.2441ZM9.50578 6.92893C8.08572 6.92893 6.92752 8.08713 6.92752 9.50719V14.4925C6.92752 15.9126 8.08572 17.0708 9.50578 17.0708H14.4911C15.9112 17.0708 17.0694 15.9126 17.0694 14.4925V9.50719C17.0694 8.08713 15.9112 6.92893 14.4911 6.92893H9.50578Z" fill="white"/>
<defs>
<linearGradient id="paint0_linear_1706_4810" x1="3.5149" y1="3.5149" x2="20.4851" y2="20.4851" gradientUnits="userSpaceOnUse">
<stop stop-color="#FFE185"/>
<stop offset="0.21" stop-color="#FFBB36"/>
<stop offset="0.38" stop-color="#FF5176"/>
<stop offset="0.52" stop-color="#F63395"/>
<stop offset="0.74" stop-color="#A436D2"/>
<stop offset="1" stop-color="#5F4EED"/>
</linearGradient>
</defs>
</svg>
