<svg width="435" height="140" viewBox="0 0 435 140" fill="none" xmlns="http://www.w3.org/2000/svg">
<g filter="url(#filter0_d_1706_5125)">
<path d="M22.331 58.9731V17.1591H42.9048C51.453 17.1591 56.4371 21.071 56.4371 27.5619V27.6198C56.4371 32.1113 53.0468 35.8783 48.4974 36.4578V37.0374C53.8871 37.1823 58.3206 41.5578 58.3206 46.7737V46.8316C58.3206 54.1339 52.5252 58.9731 43.5713 58.9731H22.331ZM39.5434 25.5624H34.6173V33.9079H39.3986C42.5281 33.9079 44.4985 32.2562 44.4985 29.7641V29.7062C44.4985 27.1562 42.673 25.5624 39.5434 25.5624ZM39.9491 40.9493H34.6173V50.5697H39.8622C43.6872 50.5697 45.8025 48.8311 45.8025 45.7015V45.6436C45.8025 42.6589 43.6292 40.9493 39.9491 40.9493Z" fill="white"/>
<path d="M65.6228 58.9731V17.1591H77.9091V58.9731H65.6228Z" fill="white"/>
<path d="M87.5295 58.9731V17.1591H106.365C117.347 17.1591 122.969 22.4039 122.969 31.3579V31.4158C122.969 36.313 120.563 41.0362 116.246 43.1226L124.186 58.9731H110.45L103.844 44.9481H99.8158V58.9731H87.5295ZM99.8158 36.8345H104.945C108.306 36.8345 110.45 34.7192 110.45 31.5607V31.5028C110.45 28.4312 108.306 26.2289 104.945 26.2289H99.8158V36.8345Z" fill="white"/>
<path d="M140.587 58.9731V26.8954H128.967V17.1591H164.493V26.8954H152.873V58.9731H140.587Z" fill="white"/>
<path d="M171.911 58.9731V17.1591H184.197V33.0385H198.918V17.1591H211.204V58.9731H198.918V42.7748H184.197V58.9731H171.911Z" fill="white"/>
<path d="M220.824 58.9731V17.1591H239.659C250.642 17.1591 256.263 22.4039 256.263 31.3579V31.4158C256.263 36.313 253.858 41.0362 249.541 43.1226L257.48 58.9731H243.745L237.138 44.9481H233.111V58.9731H220.824ZM233.111 36.8345H238.239C241.601 36.8345 243.745 34.7192 243.745 31.5607V31.5028C243.745 28.4312 241.601 26.2289 238.239 26.2289H233.111V36.8345Z" fill="white"/>
<path d="M264.464 58.9731V17.1591H276.75V58.9731H264.464Z" fill="white"/>
<path d="M305.408 60.1321C292.137 60.1321 284.284 51.9026 284.284 38.0516V37.9936C284.284 24.3164 292.137 16 305.032 16C315.521 16 323.403 22.1721 324.273 30.8942L324.301 31.184H312.218L312.16 30.9232C311.523 27.9965 308.567 26.0261 305.032 26.0261C299.816 26.0261 296.802 30.4016 296.802 37.8198V37.8777C296.802 45.4697 300.308 50.1061 305.698 50.1061C309.697 50.1061 312.537 47.8748 312.884 44.4265L312.942 43.847H306.567V35.6755H324.765V41.1811C324.765 53.0617 317.55 60.1321 305.408 60.1321Z" fill="white"/>
<path d="M332.328 58.9731V17.1591H344.614V33.0385H359.335V17.1591H371.621V58.9731H359.335V42.7748H344.614V58.9731H332.328Z" fill="white"/>
<path d="M390.659 58.9731V26.8954H379.039V17.1591H414.565V26.8954H402.945V58.9731H390.659Z" fill="white"/>
<path d="M35.1956 116C26.044 116 20.367 112.011 20.0245 105.209L20 104.72H29.8612L29.8857 104.915C30.1059 106.677 32.1614 108.047 35.3179 108.047C38.4256 108.047 40.3342 106.726 40.3342 104.891V104.866C40.3342 103.178 38.915 102.591 34.9998 101.857L31.4518 101.196C23.8662 99.7767 20.5873 96.1797 20.5873 90.5517V90.5272C20.5873 83.2842 26.7047 78.7329 35.0732 78.7329C44.5185 78.7329 49.2901 83.2842 49.8773 89.842L49.9018 90.1112H40.3831L40.3342 89.842C39.9916 87.9089 38.0341 86.6855 35.1956 86.6855C32.3327 86.6855 30.8645 87.9334 30.8645 89.5484V89.5729C30.8645 91.3347 32.3816 92.1667 35.9052 92.8273L39.4533 93.488C47.0389 94.9072 50.6114 97.9415 50.6114 103.839V103.863C50.6114 111.277 44.9345 116 35.1956 116Z" fill="white"/>
<path d="M73.2702 116C62.4302 116 55.4809 108.928 55.4809 97.3787V97.3297C55.4809 85.829 62.4791 78.7329 73.2702 78.7329C84.0613 78.7329 91.0351 85.829 91.0351 97.3297V97.3787C91.0351 108.928 84.0613 116 73.2702 116ZM73.2702 107.534C77.5279 107.534 80.4643 103.569 80.4643 97.3787V97.3297C80.4643 91.1634 77.5279 87.1993 73.2702 87.1993C68.9881 87.1993 66.0517 91.1634 66.0517 97.3297V97.3787C66.0517 103.569 68.9881 107.534 73.2702 107.534Z" fill="white"/>
<path d="M112.96 116C103.637 116 97.4217 110.837 97.4217 102.811V79.7116H107.797V101.783C107.797 105.478 109.608 107.534 112.984 107.534C116.361 107.534 118.172 105.478 118.172 101.783V79.7116H128.547V102.811C128.547 110.788 122.405 116 112.96 116Z" fill="white"/>
<path d="M136.671 115.021V79.7116H147.046V106.799H161.434V115.021H136.671Z" fill="white"/>
<path d="M179.59 115.021V79.7116H189.966V93.121H202.396V79.7116H212.771V115.021H202.396V101.343H189.966V115.021H179.59Z" fill="white"/>
<path d="M220.895 115.021V79.7116H245.805V87.9334H231.27V93.6593H244.9V101.098H231.27V106.799H245.805V115.021H220.895Z" fill="white"/>
<path d="M251.139 115.021L262.665 79.7116H275.682L287.208 115.021H276.294L274.508 107.998H263.839L262.053 115.021H251.139ZM268.929 88.1292L265.723 100.682H272.624L269.418 88.1292H268.929Z" fill="white"/>
<path d="M293.031 115.021V79.7116H303.406V106.799H317.795V115.021H293.031Z" fill="white"/>
<path d="M324.206 115.021V79.7116H334.581V115.021H324.206Z" fill="white"/>
<path d="M342.705 115.021V79.7116H350.755L364.091 97.2319H364.58V79.7116H374.368V115.021H366.391L352.982 97.2319H352.492V115.021H342.705Z" fill="white"/>
<path d="M398.568 116C387.361 116 380.73 109.051 380.73 97.3542V97.3053C380.73 85.7556 387.361 78.7329 398.25 78.7329C407.108 78.7329 413.764 83.9449 414.498 91.3102L414.523 91.5549H404.319L404.27 91.3347C403.732 88.8633 401.236 87.1993 398.25 87.1993C393.846 87.1993 391.301 90.8942 391.301 97.1584V97.2074C391.301 103.618 394.262 107.534 398.813 107.534C402.19 107.534 404.588 105.649 404.882 102.738L404.931 102.248H399.547V95.3477H414.914V99.9969C414.914 110.029 408.821 116 398.568 116Z" fill="white"/>
</g>
<defs>
<filter id="filter0_d_1706_5125" x="0" y="0" width="434.914" height="140" filterUnits="userSpaceOnUse" color-interpolation-filters="sRGB">
<feFlood flood-opacity="0" result="BackgroundImageFix"/>
<feColorMatrix in="SourceAlpha" type="matrix" values="0 0 0 0 0 0 0 0 0 0 0 0 0 0 0 0 0 0 127 0" result="hardAlpha"/>
<feOffset dy="4"/>
<feGaussianBlur stdDeviation="10"/>
<feComposite in2="hardAlpha" operator="out"/>
<feColorMatrix type="matrix" values="0 0 0 0 0 0 0 0 0 0 0 0 0 0 0 0 0 0 0.45 0"/>
<feBlend mode="normal" in2="BackgroundImageFix" result="effect1_dropShadow_1706_5125"/>
<feBlend mode="normal" in="SourceGraphic" in2="effect1_dropShadow_1706_5125" result="shape"/>
</filter>
</defs>
</svg>
