<svg width="17" height="14" viewBox="0 0 17 14" fill="none" xmlns="http://www.w3.org/2000/svg">
<path d="M14.1215 7.5583H12.845C12.9753 7.91449 13.0462 8.29904 13.0462 8.69939V13.5233C13.0462 13.6902 13.0172 13.8508 12.9643 13.9997H15.0744C15.8625 13.9997 16.504 13.3585 16.504 12.5701V9.94041C16.504 8.62686 15.4354 7.55798 14.1215 7.55798V7.5583ZM3.45745 8.69971C3.45745 8.29904 3.52869 7.91481 3.65859 7.55862H2.38211C1.06889 7.5583 0 8.62719 0 9.94073V12.5704C0 13.3585 0.64114 14 1.42959 14H3.53965C3.48678 13.8508 3.45777 13.6906 3.45777 13.5236V8.69971H3.45745ZM9.7109 6.31728H6.79306C5.47951 6.31728 4.41062 7.38617 4.41062 8.69971V13.5236C4.41062 13.7866 4.62401 14 4.88704 14H11.6169C11.88 14 12.0933 13.7866 12.0933 13.5236V8.69971C12.0933 7.38617 11.0245 6.31728 9.7109 6.31728ZM8.25198 0C6.67218 0 5.38667 1.28518 5.38667 2.86531C5.38667 3.93677 5.97817 4.87286 6.85172 5.36411C7.26593 5.59716 7.74365 5.73029 8.25198 5.73029C8.76031 5.73029 9.23803 5.59716 9.65224 5.36411C10.5258 4.87286 11.1173 3.93677 11.1173 2.86531C11.1173 1.2855 9.8321 0 8.25198 0ZM3.22085 2.67061C2.03946 2.67061 1.07824 3.63184 1.07824 4.81323C1.07824 5.99461 2.03946 6.95616 3.22085 6.95616C3.52063 6.95616 3.8059 6.89395 4.06507 6.78242C4.51345 6.58933 4.88285 6.24797 5.11171 5.8199C5.27224 5.51948 5.36346 5.17683 5.36346 4.81323C5.36346 3.63184 4.40224 2.67061 3.22053 2.67061H3.22085ZM13.2831 2.67061C12.1017 2.67061 11.1402 3.63184 11.1402 4.81323C11.1402 5.17683 11.2314 5.51948 11.3919 5.8199C11.6208 6.24797 11.9902 6.58933 12.4386 6.78242C12.6977 6.89395 12.9833 6.95616 13.2831 6.95616C14.4645 6.95616 15.426 5.99493 15.426 4.81323C15.426 3.63152 14.4648 2.67061 13.2831 2.67061Z" fill="#D4BC66"/>
</svg>
