<svg width="24" height="24" viewBox="0 0 24 24" fill="none" xmlns="http://www.w3.org/2000/svg">
<path d="M12 24C18.6274 24 24 18.6274 24 12C24 5.37258 18.6274 0 12 0C5.37258 0 0 5.37258 0 12C0 18.6274 5.37258 24 12 24Z" fill="url(#paint0_linear_1706_4792)"/>
<path fill-rule="evenodd" clip-rule="evenodd" d="M11.1782 14.2406C11.1681 14.2759 11.1581 14.3111 11.148 14.3413C10.6746 16.1995 10.6192 16.6175 10.1308 17.4786C9.89913 17.8915 9.63728 18.2792 9.34521 18.6519C9.30996 18.6922 9.27975 18.7476 9.21429 18.7375C9.14379 18.7224 9.13874 18.6569 9.12867 18.6015C9.0481 18.0375 9.00782 17.4685 9.02796 16.8995C9.05314 16.1542 9.14378 15.9024 10.1006 11.8688C10.1157 11.8084 10.1006 11.758 10.0804 11.7027C9.84878 11.0833 9.80346 10.4538 10.0049 9.81931C10.4379 8.44457 11.999 8.33882 12.2709 9.47185C12.4371 10.1718 11.994 11.0933 11.6515 12.4479C11.3696 13.5658 12.6889 14.3615 13.8118 13.5457C14.8492 12.7904 15.2521 10.9876 15.1765 9.70349C15.0254 7.15041 12.2256 6.60152 10.448 7.42233C8.41361 8.364 7.95033 10.8869 8.86682 12.04C8.98264 12.1861 9.07329 12.2767 9.033 12.4227C8.97257 12.6544 8.92221 12.886 8.85675 13.1177C8.81143 13.2889 8.66539 13.3493 8.49418 13.2788C8.15679 13.1428 7.87479 12.9263 7.64315 12.6443C6.86262 11.6775 6.64105 9.76391 7.67337 8.14746C8.81646 6.35477 10.9415 5.62963 12.8853 5.8512C15.2067 6.11306 16.6721 7.69929 16.944 9.49703C17.0699 10.3178 16.9793 12.3371 15.8312 13.7622C14.5068 15.4039 12.3666 15.5096 11.3746 14.5025C11.299 14.4269 11.2386 14.3363 11.1631 14.2406H11.1782Z" fill="white"/>
<defs>
<linearGradient id="paint0_linear_1706_4792" x1="3.5149" y1="3.5149" x2="20.4851" y2="20.4851" gradientUnits="userSpaceOnUse">
<stop stop-color="#FF4C3C"/>
<stop offset="0.96" stop-color="#EE053D"/>
<stop offset="1" stop-color="#EE023E"/>
</linearGradient>
</defs>
</svg>
