<svg width="24" height="24" viewBox="0 0 24 24" fill="none" xmlns="http://www.w3.org/2000/svg">
<path d="M12 24C18.6274 24 24 18.6274 24 12C24 5.37258 18.6274 0 12 0C5.37258 0 0 5.37258 0 12C0 18.6274 5.37258 24 12 24Z" fill="url(#paint0_linear_1706_4789)"/>
<path d="M5.11994 11.7179C5.11994 11.7179 11.1225 9.25549 13.2072 8.38432C14.0029 8.03686 16.7121 6.92901 16.7121 6.92901C16.7121 6.92901 17.9609 6.44559 17.8551 7.62393C17.8199 8.10736 17.5429 9.80942 17.266 11.6474C16.848 14.2509 16.3998 17.096 16.3998 17.096C16.3998 17.096 16.3293 17.8967 15.7402 18.0327C15.151 18.1737 14.1791 17.5492 14.0029 17.4082C13.8619 17.3025 11.3994 15.7414 10.498 14.981C10.2563 14.7746 9.97936 14.3566 10.5333 13.8682C11.7821 12.7251 13.2727 11.3 14.1791 10.3986C14.5971 9.98062 15.01 9.00875 13.2777 10.1921C10.8153 11.8942 8.38306 13.4905 8.38306 13.4905C8.38306 13.4905 7.82913 13.8379 6.78674 13.5257C5.74436 13.2135 4.53077 12.7956 4.53077 12.7956C4.53077 12.7956 3.69988 12.2769 5.11994 11.7179Z" fill="white"/>
<defs>
<linearGradient id="paint0_linear_1706_4789" x1="3.5149" y1="3.5149" x2="20.4851" y2="20.4851" gradientUnits="userSpaceOnUse">
<stop stop-color="#2CB5E5"/>
<stop offset="0.65" stop-color="#6C6EF5"/>
<stop offset="1" stop-color="#9146FF"/>
</linearGradient>
</defs>
</svg>
