<svg width="14" height="14" viewBox="0 0 14 14" fill="none" xmlns="http://www.w3.org/2000/svg">
<path fill-rule="evenodd" clip-rule="evenodd" d="M7 0C3.13532 0 0 3.13532 0 7C0 10.8647 3.13532 14 7 14C10.8647 14 14 10.8647 14 7C14 3.13532 10.8615 0 7 0ZM10.0311 6.00226L7.03157 9.0018C6.64321 9.39017 6.00857 9.39017 5.61705 9.0018L4.11728 7.50203C3.72891 7.11367 3.72891 6.47903 4.11728 6.08751C4.5088 5.69599 5.14028 5.69599 5.5318 6.08751L6.32431 6.88002L8.6166 4.58773C9.00812 4.19621 9.6396 4.19621 10.0311 4.58773C10.4258 4.97609 10.4258 5.61074 10.0311 6.00226Z" fill="#36B242"/>
</svg>
